<mxfile host="app.diagrams.net" modified="2022-09-10T00:26:35.859Z" agent="5.0 (Windows NT 10.0; Win64; x64) AppleWebKit/537.36 (KHTML, like Gecko) Chrome/105.0.0.0 Safari/537.36 Edg/105.0.1343.27" etag="CkZhFhAkOG54UZ4obmLp" version="20.3.0" type="github">
  <diagram id="cM7Y36FhlhCcHA8S7id0" name="Página-1">
    <mxGraphModel dx="599" dy="541" grid="1" gridSize="10" guides="1" tooltips="1" connect="1" arrows="1" fold="1" page="1" pageScale="1" pageWidth="827" pageHeight="1169" math="0" shadow="0">
      <root>
        <mxCell id="0" />
        <mxCell id="1" parent="0" />
        <mxCell id="lvlOLy8jiuh8zO6sf8LZ-5" value="Sócio" style="shape=umlActor;verticalLabelPosition=bottom;verticalAlign=top;html=1;outlineConnect=0;" vertex="1" parent="1">
          <mxGeometry x="60" y="200" width="30" height="60" as="geometry" />
        </mxCell>
        <mxCell id="lvlOLy8jiuh8zO6sf8LZ-10" style="edgeStyle=orthogonalEdgeStyle;rounded=0;orthogonalLoop=1;jettySize=auto;html=1;" edge="1" parent="1" source="lvlOLy8jiuh8zO6sf8LZ-7" target="lvlOLy8jiuh8zO6sf8LZ-8">
          <mxGeometry relative="1" as="geometry" />
        </mxCell>
        <mxCell id="lvlOLy8jiuh8zO6sf8LZ-13" style="edgeStyle=orthogonalEdgeStyle;rounded=0;orthogonalLoop=1;jettySize=auto;html=1;entryX=0;entryY=0.5;entryDx=0;entryDy=0;" edge="1" parent="1" source="lvlOLy8jiuh8zO6sf8LZ-7" target="lvlOLy8jiuh8zO6sf8LZ-12">
          <mxGeometry relative="1" as="geometry">
            <Array as="points">
              <mxPoint x="260" y="90" />
              <mxPoint x="260" y="140" />
            </Array>
          </mxGeometry>
        </mxCell>
        <mxCell id="lvlOLy8jiuh8zO6sf8LZ-43" style="edgeStyle=orthogonalEdgeStyle;rounded=0;orthogonalLoop=1;jettySize=auto;html=1;entryX=0;entryY=0.5;entryDx=0;entryDy=0;" edge="1" parent="1" source="lvlOLy8jiuh8zO6sf8LZ-7" target="lvlOLy8jiuh8zO6sf8LZ-42">
          <mxGeometry relative="1" as="geometry">
            <Array as="points">
              <mxPoint x="260" y="90" />
              <mxPoint x="260" y="190" />
            </Array>
          </mxGeometry>
        </mxCell>
        <mxCell id="lvlOLy8jiuh8zO6sf8LZ-7" value="Funcionário" style="shape=umlActor;verticalLabelPosition=bottom;verticalAlign=top;html=1;outlineConnect=0;" vertex="1" parent="1">
          <mxGeometry x="200" y="60" width="30" height="60" as="geometry" />
        </mxCell>
        <mxCell id="lvlOLy8jiuh8zO6sf8LZ-8" value="Manutenção de DVD" style="ellipse;whiteSpace=wrap;html=1;" vertex="1" parent="1">
          <mxGeometry x="340" y="70" width="130" height="40" as="geometry" />
        </mxCell>
        <mxCell id="lvlOLy8jiuh8zO6sf8LZ-11" value="Cliente" style="shape=umlActor;verticalLabelPosition=bottom;verticalAlign=top;html=1;outlineConnect=0;" vertex="1" parent="1">
          <mxGeometry x="60" y="60" width="30" height="60" as="geometry" />
        </mxCell>
        <mxCell id="lvlOLy8jiuh8zO6sf8LZ-12" value="Registrar Locação" style="ellipse;whiteSpace=wrap;html=1;" vertex="1" parent="1">
          <mxGeometry x="340" y="120" width="130" height="40" as="geometry" />
        </mxCell>
        <mxCell id="lvlOLy8jiuh8zO6sf8LZ-16" value="" style="shape=flexArrow;endArrow=classic;html=1;rounded=0;width=8.571428571428571;endSize=4.382857142857143;" edge="1" parent="1">
          <mxGeometry width="50" height="50" relative="1" as="geometry">
            <mxPoint x="74.70999999999998" y="190" as="sourcePoint" />
            <mxPoint x="74.70999999999998" y="140" as="targetPoint" />
            <Array as="points">
              <mxPoint x="74.70999999999998" y="170" />
            </Array>
          </mxGeometry>
        </mxCell>
        <mxCell id="lvlOLy8jiuh8zO6sf8LZ-17" value="" style="endArrow=none;html=1;rounded=0;" edge="1" parent="1">
          <mxGeometry width="50" height="50" relative="1" as="geometry">
            <mxPoint x="100" y="90" as="sourcePoint" />
            <mxPoint x="190" y="90" as="targetPoint" />
          </mxGeometry>
        </mxCell>
        <mxCell id="lvlOLy8jiuh8zO6sf8LZ-18" value="Locação de DVD" style="text;html=1;align=center;verticalAlign=middle;resizable=0;points=[];autosize=1;strokeColor=none;fillColor=none;" vertex="1" parent="1">
          <mxGeometry x="160" y="15" width="110" height="30" as="geometry" />
        </mxCell>
        <mxCell id="lvlOLy8jiuh8zO6sf8LZ-19" value="Venda de passagens aéreas" style="text;html=1;align=center;verticalAlign=middle;resizable=0;points=[];autosize=1;strokeColor=none;fillColor=none;" vertex="1" parent="1">
          <mxGeometry x="130" y="330" width="180" height="30" as="geometry" />
        </mxCell>
        <mxCell id="lvlOLy8jiuh8zO6sf8LZ-29" style="edgeStyle=orthogonalEdgeStyle;rounded=0;orthogonalLoop=1;jettySize=auto;html=1;entryX=0;entryY=0.5;entryDx=0;entryDy=0;" edge="1" parent="1" source="lvlOLy8jiuh8zO6sf8LZ-20" target="lvlOLy8jiuh8zO6sf8LZ-21">
          <mxGeometry relative="1" as="geometry" />
        </mxCell>
        <mxCell id="lvlOLy8jiuh8zO6sf8LZ-30" style="edgeStyle=orthogonalEdgeStyle;rounded=0;orthogonalLoop=1;jettySize=auto;html=1;entryX=0;entryY=0.5;entryDx=0;entryDy=0;" edge="1" parent="1" source="lvlOLy8jiuh8zO6sf8LZ-20" target="lvlOLy8jiuh8zO6sf8LZ-23">
          <mxGeometry relative="1" as="geometry" />
        </mxCell>
        <mxCell id="lvlOLy8jiuh8zO6sf8LZ-31" style="edgeStyle=orthogonalEdgeStyle;rounded=0;orthogonalLoop=1;jettySize=auto;html=1;entryX=0;entryY=0.5;entryDx=0;entryDy=0;" edge="1" parent="1" source="lvlOLy8jiuh8zO6sf8LZ-20" target="lvlOLy8jiuh8zO6sf8LZ-25">
          <mxGeometry relative="1" as="geometry" />
        </mxCell>
        <mxCell id="lvlOLy8jiuh8zO6sf8LZ-32" style="edgeStyle=orthogonalEdgeStyle;rounded=0;orthogonalLoop=1;jettySize=auto;html=1;entryX=0;entryY=0.5;entryDx=0;entryDy=0;" edge="1" parent="1" source="lvlOLy8jiuh8zO6sf8LZ-20" target="lvlOLy8jiuh8zO6sf8LZ-27">
          <mxGeometry relative="1" as="geometry" />
        </mxCell>
        <mxCell id="lvlOLy8jiuh8zO6sf8LZ-20" value="Cliente" style="shape=umlActor;verticalLabelPosition=bottom;verticalAlign=top;html=1;outlineConnect=0;" vertex="1" parent="1">
          <mxGeometry x="60" y="375" width="30" height="60" as="geometry" />
        </mxCell>
        <mxCell id="lvlOLy8jiuh8zO6sf8LZ-21" value="Escolher a passagem" style="ellipse;whiteSpace=wrap;html=1;" vertex="1" parent="1">
          <mxGeometry x="175" y="380" width="155" height="50" as="geometry" />
        </mxCell>
        <mxCell id="lvlOLy8jiuh8zO6sf8LZ-23" value="Consultar Disponibilidade" style="ellipse;whiteSpace=wrap;html=1;" vertex="1" parent="1">
          <mxGeometry x="175" y="450" width="155" height="50" as="geometry" />
        </mxCell>
        <mxCell id="lvlOLy8jiuh8zO6sf8LZ-25" value="Comprar passagem" style="ellipse;whiteSpace=wrap;html=1;" vertex="1" parent="1">
          <mxGeometry x="175" y="510" width="155" height="50" as="geometry" />
        </mxCell>
        <mxCell id="lvlOLy8jiuh8zO6sf8LZ-27" value="Cancelar compra" style="ellipse;whiteSpace=wrap;html=1;" vertex="1" parent="1">
          <mxGeometry x="175" y="580" width="155" height="50" as="geometry" />
        </mxCell>
        <mxCell id="lvlOLy8jiuh8zO6sf8LZ-33" value="Clínica veterinária" style="text;html=1;align=center;verticalAlign=middle;resizable=0;points=[];autosize=1;strokeColor=none;fillColor=none;" vertex="1" parent="1">
          <mxGeometry x="170" y="665" width="120" height="30" as="geometry" />
        </mxCell>
        <mxCell id="lvlOLy8jiuh8zO6sf8LZ-34" value="Cliente" style="shape=umlActor;verticalLabelPosition=bottom;verticalAlign=top;html=1;outlineConnect=0;" vertex="1" parent="1">
          <mxGeometry x="70" y="710" width="30" height="60" as="geometry" />
        </mxCell>
        <mxCell id="lvlOLy8jiuh8zO6sf8LZ-35" value="Secretária" style="shape=umlActor;verticalLabelPosition=bottom;verticalAlign=top;html=1;outlineConnect=0;" vertex="1" parent="1">
          <mxGeometry x="70" y="840" width="30" height="60" as="geometry" />
        </mxCell>
        <mxCell id="lvlOLy8jiuh8zO6sf8LZ-36" value="Marcar Consulta" style="ellipse;whiteSpace=wrap;html=1;" vertex="1" parent="1">
          <mxGeometry x="190" y="820" width="130" height="40" as="geometry" />
        </mxCell>
        <mxCell id="lvlOLy8jiuh8zO6sf8LZ-37" value="Cadastrar Cliente" style="ellipse;whiteSpace=wrap;html=1;" vertex="1" parent="1">
          <mxGeometry x="190" y="870" width="130" height="40" as="geometry" />
        </mxCell>
        <mxCell id="lvlOLy8jiuh8zO6sf8LZ-38" value="Gerar histórico e conta" style="ellipse;whiteSpace=wrap;html=1;" vertex="1" parent="1">
          <mxGeometry x="190" y="1010" width="130" height="40" as="geometry" />
        </mxCell>
        <mxCell id="lvlOLy8jiuh8zO6sf8LZ-39" value="Veterinário" style="shape=umlActor;verticalLabelPosition=bottom;verticalAlign=top;html=1;outlineConnect=0;" vertex="1" parent="1">
          <mxGeometry x="70" y="970" width="30" height="60" as="geometry" />
        </mxCell>
        <mxCell id="lvlOLy8jiuh8zO6sf8LZ-41" value="Manter registros" style="ellipse;whiteSpace=wrap;html=1;" vertex="1" parent="1">
          <mxGeometry x="187.5" y="920" width="130" height="40" as="geometry" />
        </mxCell>
        <mxCell id="lvlOLy8jiuh8zO6sf8LZ-42" value="Verificar pendências" style="ellipse;whiteSpace=wrap;html=1;" vertex="1" parent="1">
          <mxGeometry x="340" y="170" width="130" height="40" as="geometry" />
        </mxCell>
      </root>
    </mxGraphModel>
  </diagram>
</mxfile>
